<svg xmlns="http://www.w3.org/2000/svg" viewBox="0 0 400 250" width="400" height="250">
  <defs>
    <linearGradient id="bg2" x1="0%" y1="0%" x2="100%" y2="100%">
      <stop offset="0%" style="stop-color:#1a1a2e"/>
      <stop offset="100%" style="stop-color:#16213e"/>
    </linearGradient>
    <linearGradient id="screen2" x1="0%" y1="0%" x2="100%" y2="100%">
      <stop offset="0%" style="stop-color:#06d6a0"/>
      <stop offset="50%" style="stop-color:#118ab2"/>
      <stop offset="100%" style="stop-color:#073b4c"/>
    </linearGradient>
  </defs>
  
  <!-- Background -->
  <rect width="400" height="250" fill="url(#bg2)"/>
  
  <!-- Tablet body - slightly smaller/compact -->
  <rect x="115" y="20" width="155" height="205" rx="14" ry="14" fill="#333" stroke="#4a4a4a" stroke-width="1.5"/>
  
  <!-- Screen -->
  <rect x="125" y="35" width="135" height="173" rx="4" ry="4" fill="url(#screen2)"/>
  
  <!-- Video player UI mockup -->
  <!-- Video area -->
  <rect x="132" y="45" width="121" height="68" rx="3" fill="rgba(0,0,0,0.3)"/>
  <!-- Play button -->
  <circle cx="192" cy="79" r="14" fill="rgba(255,255,255,0.2)"/>
  <polygon points="187,71 187,87 202,79" fill="rgba(255,255,255,0.7)"/>
  <!-- Progress bar -->
  <rect x="135" y="118" width="115" height="3" rx="1.5" fill="rgba(255,255,255,0.15)"/>
  <rect x="135" y="118" width="45" height="3" rx="1.5" fill="rgba(6,214,160,0.8)"/>
  <circle cx="180" cy="119.5" r="4" fill="#06d6a0"/>
  
  <!-- Content cards below -->
  <rect x="132" y="130" width="52" height="38" rx="4" fill="rgba(255,255,255,0.1)"/>
  <rect x="190" y="130" width="52" height="38" rx="4" fill="rgba(255,255,255,0.1)"/>
  <rect x="132" y="174" width="52" height="28" rx="4" fill="rgba(255,255,255,0.07)"/>
  <rect x="190" y="174" width="52" height="28" rx="4" fill="rgba(255,255,255,0.07)"/>
  
  <!-- Home button -->
  <circle cx="192" cy="218" r="4" fill="none" stroke="#555" stroke-width="1"/>
  
  <!-- Camera dot -->
  <circle cx="192" cy="28" r="2" fill="#555"/>
  
  <!-- Battery icon on side -->
  <text x="285" y="80" fill="rgba(255,255,255,0.3)" font-family="Arial, sans-serif" font-size="10">🔋</text>
  <text x="285" y="100" fill="rgba(6,214,160,0.6)" font-family="Arial, sans-serif" font-size="9" font-weight="bold">8000</text>
  <text x="285" y="112" fill="rgba(6,214,160,0.4)" font-family="Arial, sans-serif" font-size="7">mAh</text>
  
  <!-- Portable indicator -->
  <text x="285" y="150" fill="rgba(255,255,255,0.25)" font-family="Arial, sans-serif" font-size="18">📱</text>
  
  <!-- Label -->
  <text x="200" y="248" text-anchor="middle" fill="rgba(255,255,255,0.4)" font-family="Arial, sans-serif" font-size="8">10" Compacta · 8000 mAh</text>
</svg>
